<svg xmlns="http://www.w3.org/2000/svg" viewBox="0 0 112 77" width="112" height="77">
	<style>
		tspan { white-space:pre }
		.shp0 { fill: #f5c506 } 
	</style>
	<g id="icon_area">
		<path id="Shape 2" class="shp0" d="M83.75 76L25.84 76C12.68 76 2 65.46 2 52.45C2 41.77 9.25 32.86 19.12 29.98C19.1 29.62 19.03 29.27 19.03 28.91C19.03 19.62 26.66 12.09 36.06 12.09C37.95 12.09 39.73 12.46 41.42 13.02C46.38 6.37 54.3 2 63.31 2C76.27 2 87.06 10.95 89.83 22.91C101.94 25.64 111 36.3 111 49.09C111 63.95 98.8 76 83.75 76ZM63.31 49.09L63.31 28.91L49.69 28.91L49.69 49.09L39.26 49.09L56.5 66.12L73.74 49.09L63.31 49.09Z" />
	</g>
</svg>