<svg xmlns="http://www.w3.org/2000/svg" viewBox="0 0 27 21" width="27" height="21">
	<style>
		tspan { white-space:pre }
		.shp0 { fill: #b99403 } 
	</style>
	<g id="bnner+header">
		<g id="main_nav">
			<path id="Shape 7" class="shp0" d="M25.74 19.3L17.46 11.02L23.58 4.9L25.76 2.73C25.9 2.96 26 3.21 26 3.5L26 18.5C26 18.8 25.89 19.06 25.74 19.3ZM23.05 4.37L20.26 7.16L14.91 12.51L13.98 13.45L4.95 4.41L3.45 2.91L2.76 2.23C2.98 2.1 3.22 2 3.5 2L24.5 2C24.76 2 25 2.09 25.22 2.21L24.46 2.96L23.05 4.37ZM2.91 3.45L10.47 11L2.23 19.24C2.1 19.02 2 18.78 2 18.5L2 3.5C2 3.22 2.1 2.98 2.23 2.76L2.91 3.45L2.91 3.45ZM11 11.53L11.32 11.85L11.43 11.96L12.46 12.99L13.96 14.49L14.02 14.43L14.04 14.44L15.45 13.04L16.93 11.55L25.19 19.81C24.98 19.92 24.75 20 24.5 20L3.5 20C3.22 20 2.98 19.9 2.76 19.77L11 11.53Z" />
		</g>
	</g>
</svg>