<svg xmlns="http://www.w3.org/2000/svg" viewBox="0 0 22 23" width="22" height="23">
	<style>
		tspan { white-space:pre }
		.shp0 { fill: #b99403 } 
	</style>
	<g id="bnner+header">
		<g id="main_nav">
			<path id="Shape 6" class="shp0" d="M15.96 3.58C15 4.53 15 6.08 15.96 7.03C16.91 7.99 18.46 7.99 19.42 7.03L20.82 5.63C20.92 6.04 21 6.45 21 6.88C21 9.58 18.81 11.77 16.11 11.77C15.67 11.77 15.25 11.69 14.84 11.58C14.83 11.6 14.82 11.61 14.81 11.63L6.16 20.26C5.2 21.22 3.65 21.22 2.7 20.26C1.74 19.31 1.74 17.76 2.7 16.81L11.35 8.18C11.36 8.16 11.38 8.16 11.4 8.14C11.29 7.74 11.21 7.32 11.21 6.88C11.21 4.19 13.4 2 16.11 2C16.54 2 16.96 2.07 17.36 2.18L15.96 3.58ZM4.48 17.87C4.15 17.87 3.87 18.14 3.87 18.48C3.87 18.82 4.15 19.09 4.48 19.09C4.82 19.09 5.1 18.82 5.1 18.48C5.1 18.14 4.82 17.87 4.48 17.87Z" />
		</g>
	</g>
</svg>